<svg width="255" height="270" viewBox="0 0 255 270" fill="none" xmlns="http://www.w3.org/2000/svg">
<path fill-rule="evenodd" clip-rule="evenodd" d="M0 134.998V269.995L29.8483 269.922L59.6965 269.849L59.7705 171.515L59.8448 73.1805L60.4999 73.272C61.2631 73.3784 59.1152 69.3423 84.4472 118.266C94.4656 137.614 109.868 167.345 118.675 184.333C127.483 201.322 140.858 227.127 148.399 241.677C155.939 256.228 162.454 268.553 162.877 269.066L163.644 270L173.136 269.924L182.627 269.849V230.237V190.625L178.942 183.546C176.915 179.652 158.751 144.516 138.576 105.467C118.402 66.4165 97.9064 26.7444 93.0302 17.3062L84.1647 0.145863L42.0824 0.0735034L0 0.000858016V134.998ZM192.386 2.21797C189.908 5.63173 187.16 9.99589 186.869 10.9809C186.725 11.4691 186.607 17.6005 186.607 24.6065V37.3446L187.926 39.4808C188.652 40.6554 190.416 43.2898 191.848 45.3347L194.45 49.0528H220.779H247.108L248.128 47.9088C248.689 47.2796 250.464 44.7292 252.074 42.2416L255 37.7184V24.1023V10.4861L252.432 6.60301C251.019 4.4674 249.449 2.14075 248.943 1.43289L248.023 0.145863L221.01 0.0729314L193.996 0L192.386 2.21797ZM243.206 17.4921L244.092 18.679V24.1117C244.092 29.5315 244.091 29.5472 243.291 30.7739C242.522 31.9534 242.417 32.0103 240.711 32.1722C239.734 32.2651 230.226 32.2997 219.583 32.2491C203.599 32.1733 200.146 32.0881 199.738 31.7598C198.541 30.7956 198.399 29.9837 198.399 24.108C198.399 18.512 198.408 18.4265 199.146 17.3725L199.894 16.3052H221.107H242.32L243.206 17.4921ZM186.996 62.0148C186.508 62.489 186.42 78.2222 186.904 78.5125C187.067 78.6106 199.668 78.6821 214.905 78.6718L242.61 78.6529L243.375 79.8287C244.126 80.983 244.141 81.1057 244.176 86.4978L244.212 91.9911L243.403 93.331L242.594 94.6707H214.931C191.854 94.6707 187.213 94.7356 186.933 95.0628C186.695 95.3408 186.62 97.8222 186.676 103.571L186.754 111.688L214.748 111.831L242.743 111.974L243.417 112.946C244.065 113.878 244.092 114.152 244.092 119.601C244.092 125.262 244.089 125.29 243.316 126.423L242.54 127.561H215.037C190.427 127.561 187.485 127.608 187.07 128.011C186.671 128.398 186.607 129.565 186.607 136.417C186.607 143.409 186.664 144.396 187.073 144.548C187.93 144.867 245.922 144.742 247.122 144.418C248.54 144.036 250.024 142.239 252.885 137.436L255 133.887L254.994 124.789L254.988 115.692L253.189 112.832C252.2 111.259 251.189 109.648 250.944 109.251C250.515 108.558 250.585 108.38 252.749 104.653L255 100.776V91.7391V82.7022L253.462 80.2048L251.923 77.7074L253.462 76.3706L255 75.0338V68.3356V61.637H221.193C193.566 61.637 187.315 61.7062 186.996 62.0148ZM238.415 157.05C235.718 157.305 234.598 157.695 233.651 158.711C233.137 159.261 233.074 159.917 232.958 165.962C232.876 170.225 232.941 172.882 233.14 173.373L233.449 174.14L237.726 174.136C240.079 174.133 242.12 174.201 242.262 174.286C242.404 174.371 242.886 174.952 243.332 175.578C244.141 176.709 244.144 176.736 244.192 181.954C244.24 187.192 244.24 187.194 243.429 188.531C242.663 189.797 242.534 189.879 241.071 190.046C238.944 190.289 225.522 190.106 225.521 189.834C225.521 189.713 226.184 188.577 226.994 187.309L228.468 185.003V176.775V168.548L225.53 164.142C222.13 159.044 221.211 158.015 219.695 157.606C219.018 157.424 214.073 157.308 206.885 157.308L195.177 157.306L194.177 158.157C193.225 158.968 188.484 165.489 187.31 167.602C186.801 168.519 186.754 169.32 186.754 177.183V185.763L188.491 188.414L190.228 191.065L188.417 192.71L186.607 194.356L186.611 200.213C186.614 203.434 186.734 206.251 186.878 206.472C187.1 206.812 191.691 206.896 216.465 207.012C232.593 207.089 246.124 207.069 246.533 206.969C247.402 206.758 249.15 204.55 252.61 199.294L255 195.664V182.18V168.696L253.913 166.79C250.86 161.437 248.836 159.057 246.365 157.913C244.219 156.92 242.156 156.696 238.415 157.05ZM214.574 174.083C216.055 174.256 216.212 174.351 217.006 175.567L217.855 176.866L217.854 182.173C217.853 187.038 217.802 187.563 217.239 188.48C216.162 190.236 216.379 190.196 207.791 190.196H199.903L199.077 189.147L198.251 188.098L198.16 182.411L198.069 176.724L198.894 175.46C199.347 174.765 199.919 174.143 200.164 174.078C200.908 173.882 212.88 173.886 214.574 174.083ZM186.975 220.13C186.522 220.308 186.447 235.84 186.896 236.529C187.14 236.905 190.644 236.968 214.992 237.034L242.81 237.11L243.459 238.23C244.058 239.265 244.112 239.772 244.168 244.904L244.229 250.458L243.447 251.605C242.797 252.557 242.449 252.785 241.389 252.951C240.687 253.061 228.107 253.125 213.434 253.094L186.754 253.038L186.676 260.953C186.625 266.085 186.707 269.066 186.907 269.43C187.212 269.983 187.701 269.992 216.962 269.992C234.826 269.992 246.999 269.884 247.437 269.723C248.196 269.443 250.403 266.574 253.308 262.089L255 259.478V249.934V240.39L253.508 238.131L252.016 235.872L253.508 234.605L255 233.339V226.64V219.941L221.172 219.964C202.567 219.976 187.178 220.051 186.975 220.13Z" fill="#E69B00"/>
</svg>
